<svg width="32" height="32" viewBox="0 0 32 32" fill="none" xmlns="http://www.w3.org/2000/svg">
<path d="M19.7334 8.5332C20.4278 8.5332 21.0145 8.98066 21.2353 9.59985H26.7648C26.9856 8.98066 27.5723 8.5332 28.2667 8.5332C29.1488 8.5332 29.8667 9.25106 29.8667 10.1332C29.8667 11.0153 29.1488 11.7331 28.2667 11.7331C27.5723 11.7331 26.9856 11.2857 26.7648 10.6665H21.2347C21.0139 11.2857 20.4273 11.7331 19.7329 11.7331C18.8508 11.7331 18.1329 11.0153 18.1329 10.1332C18.1329 9.25106 18.8513 8.5332 19.7334 8.5332ZM28.2667 10.6665C28.5606 10.6665 28.8 10.4276 28.8 10.1332C28.8 9.83878 28.5606 9.59985 28.2667 9.59985C27.9728 9.59985 27.7334 9.83878 27.7334 10.1332C27.7334 10.4276 27.9728 10.6665 28.2667 10.6665ZM19.7334 10.6665C20.0273 10.6665 20.2667 10.4276 20.2667 10.1332C20.2667 9.83878 20.0273 9.59985 19.7334 9.59985C19.4395 9.59985 19.2001 9.83878 19.2001 10.1332C19.2001 10.4276 19.4395 10.6665 19.7334 10.6665Z" fill="#00B2FF"/>
<path d="M15.4674 11.8313V8.5332C15.4674 8.39133 15.5234 8.25587 15.6237 8.15614L17.757 6.02284C17.8568 5.92257 17.9928 5.86658 18.1341 5.86658H19.8322C20.053 5.24739 20.6397 4.79993 21.3341 4.79993C22.2162 4.79993 22.9341 5.51778 22.9341 6.3999C22.9341 7.28202 22.2162 7.99987 21.3341 7.99987C20.6397 7.99987 20.053 7.55241 19.8322 6.93322H18.3549L16.5341 8.75399V11.8313C17.1533 12.0521 17.6008 12.6387 17.6008 13.3331C17.6008 14.2152 16.8829 14.9331 16.0008 14.9331C15.1187 14.9331 14.4008 14.2152 14.4008 13.3331C14.4008 12.6387 14.8483 12.0521 15.4674 11.8313ZM21.3341 6.93322C21.628 6.93322 21.8674 6.69429 21.8674 6.3999C21.8674 6.1055 21.628 5.86658 21.3341 5.86658C21.0402 5.86658 20.8008 6.1055 20.8008 6.3999C20.8008 6.69429 21.0402 6.93322 21.3341 6.93322ZM16.0008 13.8664C16.2946 13.8664 16.5341 13.6275 16.5341 13.3331C16.5341 13.0387 16.2946 12.7998 16.0008 12.7998C15.7069 12.7998 15.4674 13.0387 15.4674 13.3331C15.4674 13.6275 15.7069 13.8664 16.0008 13.8664Z" fill="#00B2FF"/>
<path d="M5.8672 13.8664C6.1136 13.8664 6.344 13.9267 6.55253 14.027L7.46719 13.1123V7.99986C7.46719 7.858 7.52319 7.72254 7.62346 7.6228L12.961 2.28529C12.8608 2.07676 12.8005 1.84637 12.8005 1.59997C12.8005 0.717854 13.5184 0 14.4005 0C15.2826 0 16.0005 0.717854 16.0005 1.59997C16.0005 2.48209 15.2826 3.19995 14.4005 3.19995C14.1541 3.19995 13.9237 3.13968 13.7152 3.03941L8.53386 8.22066V13.3331C8.53386 13.475 8.47786 13.6104 8.37759 13.7102L7.30666 14.7811C7.40693 14.9896 7.46719 15.22 7.46719 15.4664C7.46719 16.3485 6.74933 17.0664 5.8672 17.0664C4.98507 17.0664 4.26721 16.3485 4.26721 15.4664C4.26721 14.5843 4.98507 13.8664 5.8672 13.8664ZM14.4005 2.1333C14.6944 2.1333 14.9338 1.89437 14.9338 1.59997C14.9338 1.30558 14.6944 1.06665 14.4005 1.06665C14.1066 1.06665 13.8672 1.30558 13.8672 1.59997C13.8672 1.89437 14.1066 2.1333 14.4005 2.1333ZM5.8672 15.9997C6.16107 15.9997 6.40053 15.7608 6.40053 15.4664C6.40053 15.172 6.16107 14.9331 5.8672 14.9331C5.57334 14.9331 5.33387 15.172 5.33387 15.4664C5.33387 15.7608 5.57334 15.9997 5.8672 15.9997Z" fill="#00B2FF"/>
<path d="M1.06691 7.56467V5.33324C1.06691 5.19138 1.12291 5.05591 1.22317 4.95618L4.95649 1.22291C5.05622 1.12265 5.19222 1.06665 5.33356 1.06665H8.09834C8.31914 0.447459 8.90581 0 9.6002 0C10.4823 0 11.2002 0.717854 11.2002 1.59997C11.2002 2.48209 10.4823 3.19995 9.6002 3.19995C8.90581 3.19995 8.31914 2.75249 8.09834 2.1333H5.55436L2.13357 5.55404V7.56467C2.75277 7.78547 3.20023 8.37212 3.20023 9.06651C3.20023 9.94863 2.48237 10.6665 1.60024 10.6665C0.718111 10.6665 0.0002473 9.94863 0.0002473 9.06651C0.0002473 8.37212 0.447712 7.78547 1.06691 7.56467ZM9.6002 2.1333C9.89407 2.1333 10.1335 1.89437 10.1335 1.59997C10.1335 1.30558 9.89407 1.06665 9.6002 1.06665C9.30634 1.06665 9.06687 1.30558 9.06687 1.59997C9.06687 1.89437 9.30634 2.1333 9.6002 2.1333ZM1.60024 9.59984C1.89411 9.59984 2.13357 9.36091 2.13357 9.06651C2.13357 8.77212 1.89411 8.53319 1.60024 8.53319C1.30637 8.53319 1.06691 8.77212 1.06691 9.06651C1.06691 9.36091 1.30637 9.59984 1.60024 9.59984Z" fill="#00B2FF"/>
<path d="M8.53308 28.8982V21.2348C7.91442 21.014 7.46695 20.4274 7.46695 19.733C7.46695 18.8509 8.18482 18.133 9.06695 18.133C9.76134 18.133 10.348 18.5805 10.5688 19.1997H16.0984C16.3192 18.5805 16.9058 18.133 17.6002 18.133C18.2946 18.133 18.8813 18.5805 19.1021 19.1997H22.1794L24.1607 17.2184C24.0605 17.0098 24.0002 16.7794 24.0002 16.533C24.0002 15.6509 24.7181 14.9331 25.6002 14.9331C26.4823 14.9331 27.2002 15.6509 27.2002 16.533C27.2002 17.4152 26.4823 18.133 25.6002 18.133C25.3538 18.133 25.1234 18.0728 24.9149 17.9725L22.7773 20.1101C22.6775 20.2103 22.5416 20.2663 22.4002 20.2663H19.1021C18.8813 20.8855 18.2946 21.333 17.6002 21.333C16.9058 21.333 16.3192 20.8855 16.0984 20.2663H10.5683C10.4072 20.718 10.0515 21.0738 9.59974 21.2348V28.8982C10.2189 29.119 10.6664 29.7056 10.6664 30.4C10.6664 31.2821 9.94854 32 9.06641 32C8.18428 32 7.46642 31.2821 7.46642 30.4C7.46642 29.7056 7.91389 29.119 8.53308 28.8982ZM25.6002 17.0664C25.8941 17.0664 26.1335 16.8274 26.1335 16.533C26.1335 16.2387 25.8941 15.9997 25.6002 15.9997C25.3063 15.9997 25.0669 16.2387 25.0669 16.533C25.0669 16.8274 25.3063 17.0664 25.6002 17.0664ZM17.6002 20.2663C17.8941 20.2663 18.1336 20.0274 18.1336 19.733C18.1336 19.4386 17.8941 19.1997 17.6002 19.1997C17.3064 19.1997 17.0669 19.4386 17.0669 19.733C17.0669 20.0274 17.3064 20.2663 17.6002 20.2663ZM9.06695 30.9328C9.36081 30.9328 9.60028 30.6939 9.60028 30.3995C9.60028 30.1051 9.36081 29.8662 9.06695 29.8662C8.77308 29.8662 8.53362 30.1051 8.53362 30.3995C8.53362 30.6939 8.77308 30.9328 9.06695 30.9328ZM9.06695 20.2663C9.36081 20.2663 9.60028 20.0274 9.60028 19.733C9.60028 19.4386 9.36081 19.1997 9.06695 19.1997C8.77308 19.1997 8.53362 19.4386 8.53362 19.733C8.53362 20.0274 8.77308 20.2663 9.06695 20.2663Z" fill="#00B2FF"/>
<path d="M11.2006 10.7646V9.06651C11.2006 8.92465 11.2566 8.78918 11.3569 8.68945L17.7611 2.28529C17.6609 2.07676 17.6006 1.84637 17.6006 1.59997C17.6006 0.717854 18.3185 0 19.2006 0C19.895 0 20.4817 0.447459 20.7025 1.06665H22.9339C23.2283 1.06665 23.4672 1.30504 23.4672 1.59997V2.97915L25.4486 4.96045C25.6571 4.86018 25.8875 4.79992 26.1339 4.79992C27.016 4.79992 27.7339 5.51777 27.7339 6.39989C27.7339 7.28201 27.016 7.99986 26.1339 7.99986C25.2518 7.99986 24.5339 7.28201 24.5339 6.39989C24.5339 6.15349 24.5942 5.9231 24.6944 5.71457L22.5568 3.57701C22.4566 3.47727 22.4006 3.34181 22.4006 3.19995V2.1333H20.7025C20.4817 2.75249 19.895 3.19995 19.2006 3.19995C18.9542 3.19995 18.7238 3.13968 18.5153 3.03941L12.2673 9.28731V10.7646C12.8865 10.9854 13.334 11.5721 13.334 12.2665C13.334 13.1486 12.6161 13.8664 11.734 13.8664C10.8518 13.8664 10.134 13.1486 10.134 12.2665C10.134 11.5721 10.5814 10.9854 11.2006 10.7646ZM26.1339 6.93321C26.4278 6.93321 26.6672 6.69429 26.6672 6.39989C26.6672 6.1055 26.4278 5.86657 26.1339 5.86657C25.84 5.86657 25.6006 6.1055 25.6006 6.39989C25.6006 6.69429 25.84 6.93321 26.1339 6.93321ZM19.2006 2.1333C19.4945 2.1333 19.7339 1.89437 19.7339 1.59997C19.7339 1.30558 19.4945 1.06665 19.2006 1.06665C18.9067 1.06665 18.6673 1.30558 18.6673 1.59997C18.6673 1.89437 18.9067 2.1333 19.2006 2.1333ZM11.734 12.7998C12.0278 12.7998 12.2673 12.5609 12.2673 12.2665C12.2673 11.9721 12.0278 11.7331 11.734 11.7331C11.4401 11.7331 11.2006 11.9721 11.2006 12.2665C11.2006 12.5609 11.4401 12.7998 11.734 12.7998Z" fill="#00B2FF"/>
<path d="M12.8006 14.9331C13.495 14.9331 14.0816 15.3805 14.3024 15.9997H20.5797L23.6235 12.956C23.7232 12.8558 23.8592 12.7998 24.0005 12.7998H29.6464L30.9338 11.5123V7.15401L26.8192 3.03941C26.6106 3.13968 26.3802 3.19995 26.1338 3.19995C25.2517 3.19995 24.5339 2.48209 24.5339 1.59997C24.5339 0.717854 25.2517 0 26.1338 0C27.016 0 27.7338 0.717854 27.7338 1.59997C27.7338 1.84637 27.6736 2.07676 27.5733 2.28529L31.8442 6.55615C31.9445 6.65589 32.0005 6.79135 32.0005 6.93321V11.7331C32.0005 11.875 31.9445 12.0105 31.8442 12.1102L30.2442 13.7102C30.1445 13.8104 30.0085 13.8664 29.8672 13.8664H24.2213L21.1776 16.9101C21.0779 17.0104 20.9419 17.0664 20.8005 17.0664H14.3024C14.0816 17.6856 13.495 18.133 12.8006 18.133C11.9184 18.133 11.2006 17.4152 11.2006 16.533C11.2006 15.6509 11.9184 14.9331 12.8006 14.9331ZM26.1338 1.06665C25.84 1.06665 25.6005 1.30558 25.6005 1.59997C25.6005 1.89437 25.84 2.1333 26.1338 2.1333C26.4277 2.1333 26.6672 1.89437 26.6672 1.59997C26.6672 1.30558 26.4277 1.06665 26.1338 1.06665ZM12.8006 17.0664C13.0944 17.0664 13.3339 16.8274 13.3339 16.533C13.3339 16.2387 13.0944 15.9997 12.8006 15.9997C12.5067 15.9997 12.2672 16.2387 12.2672 16.533C12.2672 16.8274 12.5067 17.0664 12.8006 17.0664Z" fill="#00B2FF"/>
<path d="M1.60016 12.7998C1.84656 12.7998 2.07696 12.8601 2.28549 12.9603L4.26681 10.979V7.90174C3.64761 7.68094 3.20015 7.09429 3.20015 6.3999C3.20015 5.51778 3.91801 4.79993 4.80014 4.79993C5.68227 4.79993 6.40014 5.51778 6.40014 6.3999C6.40014 7.09429 5.95267 7.68094 5.33347 7.90174V11.1998C5.33347 11.3417 5.27747 11.4771 5.17721 11.5769L3.03962 13.7144C3.13988 13.923 3.20015 14.1534 3.20015 14.3998C3.20015 15.0942 2.75269 15.6808 2.13349 15.9016V16.3123L6.24387 20.4226C6.34414 20.5223 6.40014 20.6578 6.40014 20.7997V21.4311C7.01933 21.6519 7.4668 22.2386 7.4668 22.9329C7.4668 23.6273 7.01933 24.214 6.40014 24.4348V25.6982C7.01933 25.919 7.4668 26.5057 7.4668 27.2001C7.4668 28.0822 6.74893 28.8 5.8668 28.8C4.98468 28.8 4.26681 28.0822 4.26681 27.2001C4.26681 26.5057 4.71428 25.919 5.33347 25.6982V24.4348C4.71428 24.214 4.26681 23.6273 4.26681 22.9329C4.26681 22.2386 4.71428 21.6519 5.33347 21.4311V21.0204L1.22309 16.9101C1.12283 16.8104 1.06683 16.6749 1.06683 16.5331V15.9016C0.447629 15.6808 0.000164866 15.0942 0.000164866 14.3998C0.000164866 13.5176 0.718028 12.7998 1.60016 12.7998ZM4.80014 6.93322C5.09401 6.93322 5.33347 6.69429 5.33347 6.3999C5.33347 6.1055 5.09401 5.86658 4.80014 5.86658C4.50628 5.86658 4.26681 6.1055 4.26681 6.3999C4.26681 6.69429 4.50628 6.93322 4.80014 6.93322ZM5.8668 27.7329C6.16067 27.7329 6.40014 27.4939 6.40014 27.1995C6.40014 26.9051 6.16067 26.6662 5.8668 26.6662C5.57294 26.6662 5.33347 26.9051 5.33347 27.1995C5.33347 27.4939 5.57294 27.7329 5.8668 27.7329ZM5.8668 23.4663C6.16067 23.4663 6.40014 23.2273 6.40014 22.9329C6.40014 22.6386 6.16067 22.3996 5.8668 22.3996C5.57294 22.3996 5.33347 22.6386 5.33347 22.9329C5.33347 23.2273 5.57294 23.4663 5.8668 23.4663ZM1.60016 14.9331C1.89402 14.9331 2.13349 14.6942 2.13349 14.3998C2.13349 14.1054 1.89402 13.8664 1.60016 13.8664C1.30629 13.8664 1.06683 14.1054 1.06683 14.3998C1.06683 14.6942 1.30629 14.9331 1.60016 14.9331Z" fill="#00B2FF"/>
</svg>
